<svg xmlns="http://www.w3.org/2000/svg">
    <symbol id="icon-menu" viewBox="0 0 48 48">
        <path d="M6 36v-3h36v3Zm0-10.5v-3h36v3ZM6 15v-3h36v3Z"/>
    </symbol>
    <symbol id="icon-info" viewBox="0 0 48 48">
        <path d="M22.65 34h3V22h-3ZM24 18.3q.7 0 1.175-.45.475-.45.475-1.15t-.475-1.2Q24.7 15 24 15q-.7 0-1.175.5-.475.5-.475 1.2t.475 1.15q.475.45 1.175.45ZM24 44q-4.1 0-7.75-1.575-3.65-1.575-6.375-4.3-2.725-2.725-4.3-6.375Q4 28.1 4 23.95q0-4.1 1.575-7.75 1.575-3.65 4.3-6.35 2.725-2.7 6.375-4.275Q19.9 4 24.05 4q4.1 0 7.75 1.575 3.65 1.575 6.35 4.275 2.7 2.7 4.275 6.35Q44 19.85 44 24q0 4.1-1.575 7.75-1.575 3.65-4.275 6.375t-6.35 4.3Q28.15 44 24 44Zm.05-3q7.05 0 12-4.975T41 23.95q0-7.05-4.95-12T24 7q-7.05 0-12.025 4.95Q7 16.9 7 24q0 7.05 4.975 12.025Q16.95 41 24.05 41ZM24 24Z"/>
    </symbol>
    <symbol id="icon-add" viewBox="0 0 48 48">
        <path d="M22.5 38V25.5H10v-3h12.5V10h3v12.5H38v3H25.5V38Z"/>
    </symbol>
    <symbol id="icon-settings" viewBox="0 0 48 48">
        <path d="m19.4 44-1-6.3q-.95-.35-2-.95t-1.85-1.25l-5.9 2.7L4 30l5.4-3.95q-.1-.45-.125-1.025Q9.25 24.45 9.25 24q0-.45.025-1.025T9.4 21.95L4 18l4.65-8.2 5.9 2.7q.8-.65 1.85-1.25t2-.9l1-6.35h9.2l1 6.3q.95.35 2.025.925Q32.7 11.8 33.45 12.5l5.9-2.7L44 18l-5.4 3.85q.1.5.125 1.075.025.575.025 1.075t-.025 1.05q-.025.55-.125 1.05L44 30l-4.65 8.2-5.9-2.7q-.8.65-1.825 1.275-1.025.625-2.025.925l-1 6.3ZM24 30.5q2.7 0 4.6-1.9 1.9-1.9 1.9-4.6 0-2.7-1.9-4.6-1.9-1.9-4.6-1.9-2.7 0-4.6 1.9-1.9 1.9-1.9 4.6 0 2.7 1.9 4.6 1.9 1.9 4.6 1.9Zm0-3q-1.45 0-2.475-1.025Q20.5 25.45 20.5 24q0-1.45 1.025-2.475Q22.55 20.5 24 20.5q1.45 0 2.475 1.025Q27.5 22.55 27.5 24q0 1.45-1.025 2.475Q25.45 27.5 24 27.5Zm0-3.5Zm-2.2 17h4.4l.7-5.6q1.65-.4 3.125-1.25T32.7 32.1l5.3 2.3 2-3.6-4.7-3.45q.2-.85.325-1.675.125-.825.125-1.675 0-.85-.1-1.675-.1-.825-.35-1.675L40 17.2l-2-3.6-5.3 2.3q-1.15-1.3-2.6-2.175-1.45-.875-3.2-1.125L26.2 7h-4.4l-.7 5.6q-1.7.35-3.175 1.2-1.475.85-2.625 2.1L10 13.6l-2 3.6 4.7 3.45q-.2.85-.325 1.675-.125.825-.125 1.675 0 .85.125 1.675.125.825.325 1.675L8 30.8l2 3.6 5.3-2.3q1.2 1.2 2.675 2.05Q19.45 35 21.1 35.4Z"/>
    </symbol>
    <symbol id="icon-search" viewBox="0 0 48 48">
        <path d="M39.8 41.95 26.65 28.8q-1.5 1.3-3.5 2.025-2 .725-4.25.725-5.4 0-9.15-3.75T6 18.75q0-5.3 3.75-9.05 3.75-3.75 9.1-3.75 5.3 0 9.025 3.75 3.725 3.75 3.725 9.05 0 2.15-.7 4.15-.7 2-2.1 3.75L42 39.75Zm-20.95-13.4q4.05 0 6.9-2.875Q28.6 22.8 28.6 18.75t-2.85-6.925Q22.9 8.95 18.85 8.95q-4.1 0-6.975 2.875T9 18.75q0 4.05 2.875 6.925t6.975 2.875Z"/>
    </symbol>
    <symbol id="icon-more" viewBox="0 0 40 40">
        <path d="M20.042 34.917q-1.25 0-2.125-.875t-.875-2.084q0-1.208.875-2.104.875-.896 2.083-.896 1.25 0 2.104.896.854.896.854 2.104 0 1.209-.854 2.084t-2.062.875Zm0-11.959q-1.25 0-2.125-.875T17.042 20q0-1.25.875-2.104.875-.854 2.083-.854 1.25 0 2.104.854.854.854.854 2.062 0 1.25-.854 2.125t-2.062.875Zm0-11.916q-1.25 0-2.125-.875t-.875-2.125q0-1.25.875-2.125T20 5.042q1.25 0 2.104.875.854.875.854 2.125t-.854 2.125q-.854.875-2.062.875Z"/>
    </symbol>
    <symbol id="icon-play" viewBox="0 0 48 48">
        <path d="M19.15 32.5 32.5 24l-13.35-8.5ZM24 44q-4.1 0-7.75-1.575-3.65-1.575-6.375-4.3-2.725-2.725-4.3-6.375Q4 28.1 4 24q0-4.15 1.575-7.8 1.575-3.65 4.3-6.35 2.725-2.7 6.375-4.275Q19.9 4 24 4q4.15 0 7.8 1.575 3.65 1.575 6.35 4.275 2.7 2.7 4.275 6.35Q44 19.85 44 24q0 4.1-1.575 7.75-1.575 3.65-4.275 6.375t-6.35 4.3Q28.15 44 24 44Zm0-3q7.1 0 12.05-4.975Q41 31.05 41 24q0-7.1-4.95-12.05Q31.1 7 24 7q-7.05 0-12.025 4.95Q7 16.9 7 24q0 7.05 4.975 12.025Q16.95 41 24 41Zm0-17Z"/>
    </symbol>
    <symbol id="icon-account" viewBox="0 0 48 48">
        <path d="M11.1 35.25q3.15-2.2 6.25-3.375Q20.45 30.7 24 30.7q3.55 0 6.675 1.175t6.275 3.375q2.2-2.7 3.125-5.45Q41 27.05 41 24q0-7.25-4.875-12.125T24 7q-7.25 0-12.125 4.875T7 24q0 3.05.95 5.8t3.15 5.45ZM24 25.5q-2.9 0-4.875-1.975T17.15 18.65q0-2.9 1.975-4.875T24 11.8q2.9 0 4.875 1.975t1.975 4.875q0 2.9-1.975 4.875T24 25.5ZM24 44q-4.1 0-7.75-1.575-3.65-1.575-6.375-4.3-2.725-2.725-4.3-6.375Q4 28.1 4 24q0-4.15 1.575-7.775t4.3-6.35q2.725-2.725 6.375-4.3Q19.9 4 24 4q4.15 0 7.775 1.575t6.35 4.3q2.725 2.725 4.3 6.35Q44 19.85 44 24q0 4.1-1.575 7.75-1.575 3.65-4.3 6.375-2.725 2.725-6.35 4.3Q28.15 44 24 44Zm0-3q2.75 0 5.375-.8t5.175-2.8q-2.55-1.8-5.2-2.75-2.65-.95-5.35-.95-2.7 0-5.35.95-2.65.95-5.2 2.75 2.55 2 5.175 2.8Q21.25 41 24 41Zm0-18.5q1.7 0 2.775-1.075t1.075-2.775q0-1.7-1.075-2.775T24 14.8q-1.7 0-2.775 1.075T20.15 18.65q0 1.7 1.075 2.775T24 22.5Zm0-3.85Zm0 18.7Z"/>
    </symbol>
    <symbol id="icon-close" viewBox="0 0 48 48">
        <path d="m12.45 37.65-2.1-2.1L21.9 24 10.35 12.45l2.1-2.1L24 21.9l11.55-11.55 2.1 2.1L26.1 24l11.55 11.55-2.1 2.1L24 26.1Z"/>
    </symbol>
    <symbol id="icon-code" viewBox="0 0 48 48">
        <path d="m16 35.9-12-12 12.1-12.1 2.15 2.15L8.3 23.9l9.85 9.85Zm15.9.1-2.15-2.15 9.95-9.95-9.85-9.85L32 11.9l12 12Z"/>
    </symbol>
    <symbol id="icon-monetization" viewBox="0 0 48 48">
        <path d="M22.55 38.35h2.75v-2.6q3.05-.35 4.75-1.875 1.7-1.525 1.7-4.075 0-2.55-1.45-4.15-1.45-1.6-4.9-3.05-2.9-1.2-4.2-2.15-1.3-.95-1.3-2.55 0-1.55 1.125-2.45 1.125-.9 3.075-.9 1.5 0 2.6.7t1.85 2.1l2.4-1.15q-.85-1.75-2.25-2.75t-3.3-1.2V9.7h-2.75v2.55q-2.55.35-4.025 1.875Q17.15 15.65 17.15 17.9q0 2.45 1.5 3.9 1.5 1.45 4.5 2.7 3.35 1.4 4.6 2.525Q29 28.15 29 29.8q0 1.6-1.325 2.575-1.325.975-3.325.975-1.95 0-3.475-1.1-1.525-1.1-2.125-3l-2.55.85q1.05 2.3 2.575 3.625Q20.3 35.05 22.55 35.65ZM24 44q-4.1 0-7.75-1.575-3.65-1.575-6.375-4.3-2.725-2.725-4.3-6.375Q4 28.1 4 24q0-4.15 1.575-7.8 1.575-3.65 4.3-6.35 2.725-2.7 6.375-4.275Q19.9 4 24 4q4.15 0 7.8 1.575 3.65 1.575 6.35 4.275 2.7 2.7 4.275 6.35Q44 19.85 44 24q0 4.1-1.575 7.75-1.575 3.65-4.275 6.375t-6.35 4.3Q28.15 44 24 44Zm0-3q7.1 0 12.05-4.975Q41 31.05 41 24q0-7.1-4.95-12.05Q31.1 7 24 7q-7.05 0-12.025 4.95Q7 16.9 7 24q0 7.05 4.975 12.025Q16.95 41 24 41Zm0-17Z"/>
    </symbol>
    <symbol id="icon-filter" viewBox="0 0 48 48">
        <path d="M20 36v-3h8v3Zm-8-10.5v-3h24v3ZM6 15v-3h36v3Z"/>
    </symbol>
    <symbol id="icon-round" viewBox="0 0 48 48">
        <path d="M23.9 24.1ZM24 38q-5.85 0-9.925-4.075Q10 29.85 10 24q0-5.85 4.075-9.925Q18.15 10 24 10q5.85 0 9.925 4.075Q38 18.15 38 24q0 5.85-4.075 9.925Q29.85 38 24 38Zm0-3q4.6 0 7.8-3.2T35 24q0-4.6-3.2-7.8T24 13q-4.6 0-7.8 3.2T13 24q0 4.6 3.2 7.8T24 35Z"/>
    </symbol>
</svg>
