<svg xmlns="http://www.w3.org/2000/svg">
    <symbol id="icon-menu" viewBox="0 0 24 24">
        <path d="M4 18h16c.55 0 1-.45 1-1s-.45-1-1-1H4c-.55 0-1 .45-1 1s.45 1 1 1zm0-5h16c.55 0 1-.45 1-1s-.45-1-1-1H4c-.55 0-1 .45-1 1s.45 1 1 1zM3 7c0 .55.45 1 1 1h16c.55 0 1-.45 1-1s-.45-1-1-1H4c-.55 0-1 .45-1 1z"/>
    </symbol>
    <symbol id="icon-info" viewBox="0 0 24 24">
        <path d="M12 2C6.48 2 2 6.48 2 12s4.48 10 10 10 10-4.48 10-10S17.52 2 12 2zm0 15c-.55 0-1-.45-1-1v-4c0-.55.45-1 1-1s1 .45 1 1v4c0 .55-.45 1-1 1zm1-8h-2V7h2v2z"/>
    </symbol>
    <symbol id="icon-add" viewBox="0 0 24 24">
        <path d="M18 13h-5v5c0 .55-.45 1-1 1s-1-.45-1-1v-5H6c-.55 0-1-.45-1-1s.45-1 1-1h5V6c0-.55.45-1 1-1s1 .45 1 1v5h5c.55 0 1 .45 1 1s-.45 1-1 1z"/>
    </symbol>
    <symbol id="icon-settings" viewBox="0 0 24 24">
        <path d="M19.5,12c0-0.23-0.01-0.45-0.03-0.68l1.86-1.41c0.4-0.3,0.51-0.86,0.26-1.3l-1.87-3.23c-0.25-0.44-0.79-0.62-1.25-0.42 l-2.15,0.91c-0.37-0.26-0.76-0.49-1.17-0.68l-0.29-2.31C14.8,2.38,14.37,2,13.87,2h-3.73C9.63,2,9.2,2.38,9.14,2.88L8.85,5.19 c-0.41,0.19-0.8,0.42-1.17,0.68L5.53,4.96c-0.46-0.2-1-0.02-1.25,0.42L2.41,8.62c-0.25,0.44-0.14,0.99,0.26,1.3l1.86,1.41 C4.51,11.55,4.5,11.77,4.5,12s0.01,0.45,0.03,0.68l-1.86,1.41c-0.4,0.3-0.51,0.86-0.26,1.3l1.87,3.23c0.25,0.44,0.79,0.62,1.25,0.42 l2.15-0.91c0.37,0.26,0.76,0.49,1.17,0.68l0.29,2.31C9.2,21.62,9.63,22,10.13,22h3.73c0.5,0,0.93-0.38,0.99-0.88l0.29-2.31 c0.41-0.19,0.8-0.42,1.17-0.68l2.15,0.91c0.46,0.2,1,0.02,1.25-0.42l1.87-3.23c0.25-0.44,0.14-0.99-0.26-1.3l-1.86-1.41 C19.49,12.45,19.5,12.23,19.5,12z M12.04,15.5c-1.93,0-3.5-1.57-3.5-3.5s1.57-3.5,3.5-3.5s3.5,1.57,3.5,3.5S13.97,15.5,12.04,15.5z"/>
    </symbol>
    <symbol id="icon-search" viewBox="0 0 24 24">
        <path d="M15.5 14h-.79l-.28-.27c1.2-1.4 1.82-3.31 1.48-5.34-.47-2.78-2.79-5-5.59-5.34-4.23-.52-7.79 3.04-7.27 7.27.34 2.8 2.56 5.12 5.34 5.59 2.03.34 3.94-.28 5.34-1.48l.27.28v.79l4.25 4.25c.41.41 1.08.41 1.49 0 .41-.41.41-1.08 0-1.49L15.5 14zm-6 0C7.01 14 5 11.99 5 9.5S7.01 5 9.5 5 14 7.01 14 9.5 11.99 14 9.5 14z"/>
    </symbol>
    <symbol id="icon-more" viewBox="0 0 24 24">
        <path d="M12 8c1.1 0 2-.9 2-2s-.9-2-2-2-2 .9-2 2 .9 2 2 2zm0 2c-1.1 0-2 .9-2 2s.9 2 2 2 2-.9 2-2-.9-2-2-2zm0 6c-1.1 0-2 .9-2 2s.9 2 2 2 2-.9 2-2-.9-2-2-2z"/>
    </symbol>
    <symbol id="icon-play" viewBox="0 0 24 24">
        <path d="M10.8 15.9l4.67-3.5c.27-.2.27-.6 0-.8L10.8 8.1c-.33-.25-.8-.01-.8.4v7c0 .41.47.65.8.4zM12 2C6.48 2 2 6.48 2 12s4.48 10 10 10 10-4.48 10-10S17.52 2 12 2zm0 18c-4.41 0-8-3.59-8-8s3.59-8 8-8 8 3.59 8 8-3.59 8-8 8z"/>
    </symbol>
    <symbol id="icon-close" viewBox="0 0 24 24">
        <path d="M18.3 5.71c-.39-.39-1.02-.39-1.41 0L12 10.59 7.11 5.7c-.39-.39-1.02-.39-1.41 0-.39.39-.39 1.02 0 1.41L10.59 12 5.7 16.89c-.39.39-.39 1.02 0 1.41.39.39 1.02.39 1.41 0L12 13.41l4.89 4.89c.39.39 1.02.39 1.41 0 .39-.39.39-1.02 0-1.41L13.41 12l4.89-4.89c.38-.38.38-1.02 0-1.4z"/>
    </symbol>
    <symbol id="icon-close-small-medium" viewBox="0 0 24 24">
        <path d="m12 13.6-4.8 4.8q-.325.325-.8.325-.475 0-.8-.325-.325-.325-.325-.8 0-.475.325-.8l4.8-4.8-4.8-4.8q-.325-.325-.325-.8 0-.475.325-.8.325-.325.8-.325.475 0 .8.325l4.8 4.8 4.8-4.8q.325-.325.8-.325.475 0 .8.325.325.325.325.8 0 .475-.325.8L13.6 12l4.8 4.8q.325.325.325.8 0 .475-.325.8-.325.325-.8.325-.475 0-.8-.325Z"/>
    </symbol>
    <symbol id="icon-code" viewBox="0 0 24 24">
        <path d="M8.7 15.9L4.8 12l3.9-3.9c.39-.39.39-1.01 0-1.4-.39-.39-1.01-.39-1.4 0l-4.59 4.59c-.39.39-.39 1.02 0 1.41l4.59 4.6c.39.39 1.01.39 1.4 0 .39-.39.39-1.01 0-1.4zm6.6 0l3.9-3.9-3.9-3.9c-.39-.39-.39-1.01 0-1.4.39-.39 1.01-.39 1.4 0l4.59 4.59c.39.39.39 1.02 0 1.41l-4.59 4.6c-.39.39-1.01.39-1.4 0-.39-.39-.39-1.01 0-1.4z"/>
    </symbol>
    <symbol id="icon-monetization" viewBox="0 0 24 24">
        <path d="M11.8 10.9c-2.27-.59-3-1.2-3-2.15 0-1.09 1.01-1.85 2.7-1.85 1.42 0 2.13.54 2.39 1.4.12.4.45.7.87.7h.3c.66 0 1.13-.65.9-1.27-.42-1.18-1.4-2.16-2.96-2.54V4.5c0-.83-.67-1.5-1.5-1.5S10 3.67 10 4.5v.66c-1.94.42-3.5 1.68-3.5 3.61 0 2.31 1.91 3.46 4.7 4.13 2.5.6 3 1.48 3 2.41 0 .69-.49 1.79-2.7 1.79-1.65 0-2.5-.59-2.83-1.43-.15-.39-.49-.67-.9-.67h-.28c-.67 0-1.14.68-.89 1.3.57 1.39 1.9 2.21 3.4 2.53v.67c0 .83.67 1.5 1.5 1.5s1.5-.67 1.5-1.5v-.65c1.95-.37 3.5-1.5 3.5-3.55 0-2.84-2.43-3.81-4.7-4.4z"/>
    </symbol>
    <symbol id="icon-circle" viewBox="0 0 24 24">
        <path d="M12,2C6.47,2,2,6.47,2,12c0,5.53,4.47,10,10,10s10-4.47,10-10C22,6.47,17.53,2,12,2z M12,20c-4.42,0-8-3.58-8-8 c0-4.42,3.58-8,8-8s8,3.58,8,8C20,16.42,16.42,20,12,20z"/>
    </symbol>
    <symbol id="icon-clear" viewBox="0 0 24 24">
        <path d="M12 2C6.47 2 2 6.47 2 12s4.47 10 10 10 10-4.47 10-10S17.53 2 12 2zm4.3 14.3c-.39.39-1.02.39-1.41 0L12 13.41 9.11 16.3c-.39.39-1.02.39-1.41 0-.39-.39-.39-1.02 0-1.41L10.59 12 7.7 9.11c-.39-.39-.39-1.02 0-1.41.39-.39 1.02-.39 1.41 0L12 10.59l2.89-2.89c.39-.39 1.02-.39 1.41 0 .39.39.39 1.02 0 1.41L13.41 12l2.89 2.89c.38.38.38 1.02 0 1.41z"/>
    </symbol>
    <symbol id="icon-delete" viewBox="0 0 24 24">
        <path d="M16 9v10H8V9h8m-1.5-6h-5l-1 1H5v2h14V4h-3.5l-1-1zM18 7H6v12c0 1.1.9 2 2 2h8c1.1 0 2-.9 2-2V7z"/>
    </symbol>
    <symbol id="icon-edit" viewBox="0 0 24 24">
        <path d="M14.06 9.02l.92.92L5.92 19H5v-.92l9.06-9.06M17.66 3c-.25 0-.51.1-.7.29l-1.83 1.83 3.75 3.75 1.83-1.83c.39-.39.39-1.02 0-1.41l-2.34-2.34c-.2-.2-.45-.29-.71-.29zm-3.6 3.19L3 17.25V21h3.75L17.81 9.94l-3.75-3.75z"/>
    </symbol>
</svg>
